<svg width="2285" height="500" viewBox="0 0 2285 500" fill="none" xmlns="http://www.w3.org/2000/svg">
<path d="M258.918 0.212028C254.721 1.62459 251.375 4.61268 249.728 8.41573C248.932 10.2629 248.666 11.9471 248.719 15.4242C248.825 21.1288 249.994 24.6602 252.703 27.5396C255.943 30.9624 258.227 31.723 268.32 32.6466C310.389 36.4496 331.105 43.0235 365.791 63.3969L373.547 68.0149L367.385 70.2967C353.202 75.458 340.613 77.7942 324.519 78.3374C305.184 78.9351 288.611 76.5446 270.444 70.5684C248.082 63.1796 227.95 50.1406 215.733 35.1457C211.855 30.3647 210.846 27.8656 210.102 21.0744C209.571 16.1848 208.562 13.903 205.481 11.1865C204.472 10.2629 202.984 9.33934 202.188 9.17635C201.391 8.95903 200.435 8.57871 200.063 8.25273C199.001 7.38346 191.511 7.11182 188.961 7.8181C185.933 8.68737 181.897 12.8164 180.409 16.6194C179.028 20.2052 178.019 30.6364 178.763 33.8961C179.028 35.1457 180.197 38.1882 181.365 40.7416C182.534 43.2951 183.49 45.5226 183.49 45.6313C183.49 45.7943 184.924 48.0761 186.677 50.7382C188.855 54.0523 192.52 58.29 197.991 63.7772C206.225 72.0896 206.809 72.6329 216.158 79.5327C238.255 95.9945 265.133 106.426 296.897 110.881C306.565 112.239 331.69 112.293 341.41 110.935C356.549 108.816 374.503 103.981 382.152 99.9605C388.048 96.8094 396.281 93.115 398.406 92.6261C401.806 91.8654 404.727 93.3867 408.18 97.733C409.614 99.5259 412.004 102.242 413.545 103.764C416.413 106.643 422.681 114.466 425.656 118.921C426.665 120.334 429.215 123.648 431.339 126.202C435.429 131.037 435.907 132.069 434.367 132.667C433.836 132.884 430.436 134.84 426.771 137.067C418.591 142.066 408.073 147.39 402.868 149.183C401.859 149.563 400.796 149.998 400.478 150.215C399.575 150.867 393.785 152.769 390.385 153.475C388.632 153.855 387.092 154.29 386.932 154.507C386.508 155.159 377.849 157.767 374.184 158.364C351.45 162.222 327.334 163.852 311.239 162.765C301.412 162.059 298.703 161.679 290.258 159.994C287.177 159.397 283.352 158.636 281.759 158.31C278.678 157.712 260.033 151.899 252.809 149.291C248.188 147.662 232.89 139.784 225.931 135.546C209.73 125.604 185.987 106.263 169.361 89.5293C162.88 83.0098 162.349 82.4121 157.781 75.2407C152.203 66.6023 151.885 66.059 149.494 61.3867C148.273 58.9962 147.104 56.7687 146.892 56.4971C146.679 56.1711 145.936 54.4869 145.245 52.694C144.554 50.9012 143.598 48.8367 143.12 48.0761C142.642 47.3155 141.845 45.7942 141.367 44.7077C139.508 40.5786 134.675 37.8078 128.247 37.2102C120.917 36.5039 116.986 37.9165 112.524 42.7518C111.356 44.0014 109.656 45.5769 108.859 46.1745C107.053 47.4784 104.557 49.5429 103.016 51.0642C102.432 51.6618 100.838 53.0744 99.5634 54.2153C85.9121 66.222 74.2792 77.9028 66.2052 87.7364C63.39 91.1592 60.9465 94.0929 60.7872 94.2559C59.7248 95.1795 54.5724 102.514 51.1728 107.947C48.995 111.424 46.5515 115.444 45.6485 116.803C44.7986 118.215 43.5769 120.28 42.9926 121.366C42.4083 122.453 41.1335 124.517 40.2305 125.93C39.2744 127.397 38.4776 128.646 38.4776 128.701C38.4776 128.809 37.5215 130.494 36.406 132.449C33.9094 136.633 32.369 139.838 31.3598 143.152C30.563 145.814 27.1634 153.964 25.9948 156.246C25.5699 157.006 24.2419 160.538 22.9671 164.123C21.108 169.502 20.7361 171.295 20.683 174.663C20.683 178.575 20.7892 178.901 22.7546 181.617C23.8701 183.193 25.8886 185.257 27.2697 186.235C29.6069 187.92 29.9256 187.974 34.7593 187.974C39.1681 187.974 40.1774 187.811 42.8333 186.507C47.1358 184.334 49.3668 181.128 53.2975 170.969C53.935 169.448 54.9442 166.84 55.5285 165.264C57.7063 159.886 67.8519 138.589 68.9674 137.176C69.3392 136.741 70.614 134.623 71.8358 132.558C74.7573 127.614 80.1222 120.117 87.8243 110.174C93.6673 102.677 95.5265 100.558 102.272 93.7126C110.4 85.5089 117.411 79.0981 119.111 78.4461C120.386 77.9572 120.651 78.0658 121.714 79.4241C122.404 80.239 122.935 81.1626 122.935 81.3799C122.935 81.8145 126.494 87.4648 127.663 88.9316C129.416 91.1048 134.781 98.3306 137.012 101.536C139.19 104.578 145.139 111.424 149.548 115.933C153 119.465 159.587 125.767 160.915 126.799C161.818 127.451 163.943 129.407 165.695 131.091C167.448 132.83 169.839 135.003 171.007 135.981C173.398 137.991 173.398 137.991 176.478 140.11C177.753 140.979 178.922 141.957 179.134 142.337C179.719 143.261 188.324 150.161 190.13 151.139C191.033 151.628 194.964 154.235 198.894 156.952C212.971 166.622 236.714 178.575 253.925 184.605C276.819 192.646 298.969 196.395 323.138 196.395C337.586 196.395 350.387 195.145 368.607 191.994C370.36 191.723 373.228 191.234 374.981 190.962C376.734 190.69 379.283 190.201 380.718 189.875C382.099 189.604 384.33 189.115 385.658 188.789C386.986 188.517 389.96 187.648 392.191 186.942C394.422 186.235 397.291 185.366 398.618 184.986C402.602 183.899 407.224 182.269 410.039 180.965C411.526 180.259 413.279 179.553 414.023 179.336C417.369 178.358 424.434 175.261 430.755 171.947C434.579 169.991 438.51 168.035 439.519 167.6C440.529 167.22 442.335 166.242 443.503 165.427C447.062 163.091 448.603 162.493 450.674 162.656C451.737 162.711 455.349 171.24 457.845 179.553C458.323 181.183 459.173 183.899 459.757 185.529C460.873 188.789 464.007 201.448 465.6 209.162C466.185 211.824 466.875 215.138 467.141 216.497C467.46 217.855 467.831 223.994 468.044 230.188L468.363 241.434L466.928 242.086C465.813 242.629 464.113 242.575 458.483 241.868C454.658 241.38 449.559 240.836 447.222 240.673C444.884 240.51 441.06 240.021 438.723 239.587C433.517 238.663 424.009 237.305 419.335 236.87C400.956 235.186 399.097 234.643 396.175 229.97C394.794 227.797 389.695 222.473 388.951 222.473C388.739 222.473 387.517 222.038 386.242 221.441C379.762 218.507 375.459 217.801 369.244 218.67C362.604 219.539 360.161 220.517 356.071 223.94C352.831 226.602 349.75 230.351 349.75 231.709C349.75 231.981 349.537 232.252 349.272 232.252C349.006 232.252 348.687 232.687 348.475 233.176C346.935 237.794 346.563 239.424 346.616 242.031C346.616 244.15 346.775 244.694 347.094 243.933C347.359 243.227 347.572 244.476 347.678 247.682C347.891 252.463 347.359 255.288 346.935 251.756C346.775 250.452 346.722 250.833 346.669 252.952C346.51 257.135 347.997 261.318 350.972 265.284C354.371 269.794 356.655 271.587 361.383 273.488C371.156 277.454 381.992 275.824 390.598 269.25C392.191 268.001 394.369 266.806 395.378 266.48C398.14 265.719 406.905 266.48 429.693 269.522C433.198 269.957 438.457 270.609 441.379 270.88C449.984 271.75 464.644 273.597 466.344 273.977C467.884 274.357 467.938 274.575 468.097 277.508C468.203 279.247 467.885 282.887 467.406 285.658C466.928 288.374 466.185 292.938 465.76 295.763C465.335 298.534 464.857 301.087 464.697 301.359C464.219 302.12 462.413 308.748 461.351 313.474C460.448 317.495 459.173 321.189 454.764 333.033C452.905 337.923 443.663 356.938 442.441 358.242C442.016 358.731 441.06 360.578 440.263 362.371C439.041 365.142 433.464 374.377 429.799 379.756C429.161 380.625 427.409 383.233 425.921 385.461C424.381 387.688 422.469 390.296 421.672 391.165C419.281 393.719 412.323 402.248 409.773 405.725C407.755 408.496 407.277 408.877 405.896 408.714C404.568 408.551 403.93 407.953 401.912 404.476C400.584 402.248 399.309 400.293 399.043 400.238C398.831 400.13 398.618 399.641 398.618 399.206C398.618 398.5 397.928 397.413 394.741 393.338C394.528 393.012 393.678 391.926 392.882 390.839C388.951 385.515 384.383 379.919 381.196 376.496C379.23 374.377 376.946 371.824 376.096 370.792C373.016 366.934 367.385 361.175 363.667 358.079C361.595 356.34 358.674 353.787 357.293 352.374C317.879 314.018 274.481 295.328 218.548 292.666C205.853 292.069 170.954 292.34 169.148 293.101C168.405 293.373 164.952 293.862 161.446 294.133C157.781 294.405 154.169 294.948 153 295.491C151.885 295.98 150.079 296.361 148.963 296.361C147.848 296.361 145.457 296.85 143.598 297.447C141.739 298.099 139.136 298.751 137.808 298.914C136.481 299.077 134.993 299.457 134.515 299.729C133.984 299.946 131.965 300.544 130 300.924C128.035 301.359 124.37 302.446 121.873 303.424C119.376 304.347 116.083 305.488 114.49 305.923C112.896 306.357 111.303 306.955 111.037 307.172C110.718 307.444 108.169 308.422 105.406 309.345C101.316 310.704 86.4432 317.712 81.7689 320.429C78.7942 322.167 74.173 324.503 73.0575 324.884C72.3138 325.101 71.5171 325.481 71.1984 325.753C70.8796 326.024 68.0644 327.926 64.8773 330.045C57.9188 334.663 56.1128 334.989 54.7848 331.838C53.3507 328.415 50.6416 320.157 49.898 317.006C46.9234 304.51 44.4799 298.534 41.2397 295.926C37.2027 292.612 30.6161 291.743 24.5075 293.644C19.4082 295.274 16.8585 298.48 15.6368 304.89C14.84 309.019 15.3712 312.659 18.2927 322.167C19.4082 325.753 20.9486 330.86 21.7454 333.576C22.5421 336.238 23.5514 338.955 23.9232 339.552C24.3482 340.15 24.6669 340.911 24.6669 341.291C24.6669 341.671 25.623 344.007 26.7916 346.561C27.9602 349.06 28.9163 351.288 28.9163 351.505C28.9163 351.94 34.0688 363.077 34.8124 364.272C35.078 364.707 35.4498 365.467 35.6092 365.902C36.1404 367.478 42.8864 380.462 44.5862 383.233C50.2167 392.36 59.4592 405.454 61.9027 407.899C62.487 408.442 62.9119 409.04 62.9119 409.257C62.9119 409.474 63.7087 410.506 64.6648 411.539C65.5678 412.571 67.6925 415.016 69.2861 416.972C70.8796 418.927 73.3762 421.59 74.8635 422.948C76.2977 424.306 80.2284 428.272 83.628 431.858C86.9744 435.389 90.6927 438.975 91.8613 439.79C93.0299 440.659 95.0484 442.343 96.3763 443.593C100.732 447.831 119.855 461.467 126.388 465.053C129.31 466.683 133.24 469.019 136.746 471.247C139.19 472.822 146.998 476.734 147.635 476.734C148.007 476.734 148.857 477.168 149.548 477.766C150.238 478.309 151.407 478.961 152.15 479.179C152.894 479.396 156.347 481.026 159.852 482.71C177.7 491.511 191.883 495.423 217.751 498.683C227.684 499.987 229.809 500.041 250.95 499.987C271.879 499.932 273.685 499.824 275.916 498.9C279.687 497.27 281.759 495.314 283.246 492.055C284.415 489.392 284.521 488.632 284.255 484.775C283.83 479.559 282.609 476.571 279.793 473.963C276.925 471.301 274.535 470.54 270.179 470.975C255.89 472.279 241.92 471.844 228.056 469.671C215.573 467.715 211.483 466.955 209.837 466.411C208.934 466.14 206.543 465.542 204.472 465.107C198.204 463.803 193.954 462.663 191.458 461.576C187.846 460.055 183.968 458.751 181.897 458.262C180.887 458.045 179.187 457.501 178.178 457.067C177.169 456.578 175.151 455.708 173.663 455.111C164.155 451.253 149.76 444.354 148.06 442.941C147.688 442.669 146.626 441.963 145.67 441.474C142.855 439.953 137.968 436.747 135.949 435.226C134.94 434.411 133.24 433.379 132.231 432.944C129.841 431.912 128.141 429.25 128.832 427.62C129.15 427.023 130.584 425.882 132.125 425.175C133.665 424.469 135.843 423.491 137.012 422.894C143.173 420.014 145.245 419.145 146.148 419.145C146.679 419.145 147.795 418.764 148.698 418.276C149.548 417.841 151.46 417.189 152.947 416.863C154.381 416.537 156.081 415.939 156.719 415.559C157.303 415.124 159.321 414.635 161.234 414.472C163.093 414.309 165.589 413.821 166.758 413.44C170.37 412.245 176.16 411.865 179.134 412.625C181.365 413.223 183.171 413.169 190.714 412.354C198.044 411.539 201.71 411.43 211.324 411.756C217.804 411.973 224.125 412.354 225.453 412.571C226.781 412.843 229.278 413.277 231.031 413.603C232.784 413.929 235.758 414.472 237.671 414.798C239.583 415.179 241.389 415.613 241.654 415.885C241.973 416.102 243.195 416.428 244.47 416.591C245.745 416.754 247.179 417.243 247.657 417.678C248.135 418.113 249.41 418.601 250.419 418.764C251.428 418.873 253.128 419.525 254.137 420.177C255.146 420.775 256.474 421.318 257.059 421.318C257.643 421.318 259.024 421.807 260.14 422.405C261.202 423.002 262.424 423.491 262.849 423.491C264.495 423.491 277.934 430.88 284.786 435.607C294.135 441.963 301.147 447.776 310.602 457.012C319.101 465.325 319.632 466.248 320.429 473.691C320.96 478.69 321.916 480.7 325.262 484.123C327.706 486.676 332.593 488.36 336.417 487.98C341.676 487.491 346.881 483.851 349.537 478.798C351.981 474.017 351.928 464.727 349.431 458.859C347.625 454.73 347.306 454.078 345.394 450.873C344.279 449.026 343.376 447.287 343.376 447.016C343.376 446.69 342.473 445.386 341.357 444.082C340.242 442.778 338.701 440.605 337.958 439.247C335.408 434.846 316.232 417.189 311.505 414.853C310.496 414.364 309.433 413.712 309.114 413.386C308.849 413.06 307.415 412.082 305.927 411.267C304.493 410.398 302.581 409.148 301.784 408.442C300.934 407.79 300.084 407.192 299.819 407.192C299.341 407.192 295.941 405.019 294.666 403.933C294.294 403.661 293.816 403.389 293.498 403.389C293.232 403.389 289.673 401.705 285.53 399.586C281.44 397.522 277.934 395.783 277.828 395.783C277.669 395.783 276.287 395.186 274.747 394.479C270.179 392.36 256.581 387.742 249.941 386.004C226.038 379.919 205.853 378.832 172.548 381.875C167.82 382.31 163.518 382.907 162.986 383.179C162.402 383.505 160.543 383.885 158.79 384.102C155.762 384.428 151.938 385.406 144.979 387.634C143.227 388.177 140.942 388.829 139.933 389.046C138.924 389.209 136.056 390.296 133.559 391.437C131.062 392.523 128.353 393.61 127.45 393.773C126.601 393.936 123.52 395.186 120.704 396.544C117.889 397.902 115.286 399.043 114.968 399.043C114.702 399.043 114.436 399.206 114.436 399.478C114.436 399.967 106.469 404.15 103.919 404.965C101.316 405.78 99.4572 404.856 96.1639 400.944C94.5172 399.043 93.1893 397.359 93.1893 397.196C93.1893 396.978 91.0114 394.316 88.3555 391.274C85.6996 388.231 81.6095 382.799 79.3254 379.213C77.0413 375.627 74.9166 372.422 74.5979 372.041C73.8011 371.009 71.942 367.858 71.942 367.423C71.942 366.826 82.0344 359.763 88.568 355.797C115.34 339.498 145.245 329.447 180.303 325.047C187.846 324.069 219.026 324.123 226.516 325.047C243.726 327.22 261.414 331.675 272.463 336.619C273.047 336.836 275.703 338.031 278.412 339.172C281.068 340.313 285.955 342.921 289.301 344.877C292.595 346.833 296.366 348.68 297.588 348.951C298.863 349.277 300.828 350.147 301.943 350.907C303.112 351.668 304.228 352.32 304.44 352.32C304.706 352.32 305.449 352.809 306.193 353.406C306.937 354.004 307.786 354.493 308.158 354.493C309.008 354.493 315.382 359.002 322.235 364.435C341.357 379.647 358.833 399.043 374.822 422.948C377.371 426.697 379.921 430.228 380.505 430.771C381.143 431.369 381.621 432.021 381.621 432.347C381.621 432.89 383.374 437.182 385.658 442.235C388.101 447.613 392.191 451.036 397.237 451.797C402.018 452.557 403.877 451.905 410.623 447.07C418.963 441.094 445.362 413.929 445.362 411.267C445.362 411.104 446.85 408.985 448.709 406.649C456.677 396.272 460.235 391.165 464.272 384.374C465.388 382.418 466.45 380.734 466.663 380.571C467.831 379.484 473.781 367.695 479.199 355.58C481.43 350.636 487.326 335.478 488.919 330.588C491.469 322.819 495.718 305.162 497.099 296.361C499.968 278.378 500.18 274.901 499.915 247.899C499.755 227.797 499.543 222.745 498.852 220.3C498.427 218.67 497.896 215.356 497.737 212.965C497.524 210.575 497.046 206.88 496.621 204.816C496.196 202.697 495.506 198.948 495.081 196.395C494.656 193.841 493.806 189.93 493.222 187.702C492.638 185.475 491.735 182.052 491.257 180.096C489.822 174.229 487.326 167.166 484.351 160.212C482.758 156.572 481.483 153.312 481.483 152.932C481.483 152.606 481.058 151.302 480.473 150.052C479.942 148.802 478.986 146.629 478.402 145.271C477.764 143.913 476.808 141.522 476.171 139.947C475.002 136.85 469.319 126.527 467.3 123.811C466.663 122.887 466.078 121.964 466.078 121.747C466.078 121.529 463.476 117.4 460.289 112.565C457.102 107.73 454.233 103.166 453.861 102.405C453.171 100.993 447.859 94.0929 446.372 92.6261C445.894 92.1914 444.513 90.4529 443.238 88.823C439.466 83.9334 415.829 60.3002 409.083 54.6499C402.337 49.054 400.956 48.0217 397.503 45.9029C396.281 45.1423 393.678 43.3494 391.766 41.8825C389.854 40.4156 387.198 38.6228 385.87 37.8622C384.542 37.1559 382.524 35.9607 381.355 35.2544C380.186 34.5481 378.38 33.5702 377.371 33.0812C376.362 32.5922 375.14 31.8859 374.715 31.5056C373.865 30.745 359.099 23.0846 358.408 23.0846C358.249 23.0846 356.974 22.5956 355.646 21.9437C351.981 20.2595 350.334 19.4989 346.563 17.9234C344.65 17.1628 342.048 16.0218 340.72 15.4785C328.715 10.3173 313.683 6.07958 297.428 3.30878C285.689 1.2986 261.467 -0.65724 258.918 0.212028ZM205.8 14.1203C206.49 14.8809 206.915 15.4785 206.756 15.4785C206.65 15.4785 205.959 14.8809 205.268 14.1203C204.578 13.3597 204.153 12.7621 204.312 12.7621C204.419 12.7621 205.109 13.3597 205.8 14.1203ZM207.924 17.4344C207.924 17.869 207.712 18.0863 207.393 17.9234C207.128 17.7604 206.862 17.38 206.862 17.0541C206.862 16.7824 207.128 16.5651 207.393 16.5651C207.712 16.5651 207.924 16.9454 207.924 17.4344ZM378.699 240.945C379.974 242.303 380.293 243.172 380.452 245.835C380.718 249.692 379.974 251.811 378.009 253.006C374.397 255.125 369.935 254.636 367.597 251.756C366.535 250.452 366.216 249.529 366.216 247.356C366.216 242.357 369.244 239.315 374.184 239.315C376.787 239.315 377.371 239.532 378.699 240.945ZM348.156 241.76C348.156 242.194 347.944 242.575 347.625 242.575C347.359 242.575 347.253 242.194 347.413 241.76C347.625 241.325 347.838 240.945 347.944 240.945C348.05 240.945 348.156 241.325 348.156 241.76ZM325.847 481.678C325.847 482.004 325.634 482.058 325.315 481.895C325.05 481.732 324.784 481.297 324.784 481.026C324.784 480.7 325.05 480.645 325.315 480.808C325.634 480.971 325.847 481.406 325.847 481.678Z" fill="#001F3F"/>
<path d="M120.014 204.924C116.084 205.305 111.728 207.912 105.194 213.671C101.158 217.257 99.4046 217.909 91.8618 218.344C89.5246 218.507 85.5939 218.887 83.0974 219.159C76.8294 219.973 53.2981 220.843 49.1018 220.462C46.4458 220.191 45.0648 219.756 43.2588 218.507C41.9308 217.583 40.7622 216.714 40.6029 216.551C38.9562 214.649 35.9816 213.291 29.448 211.607C25.9954 210.683 17.1778 212.367 12.769 214.758C11.3879 215.518 8.51951 217.963 6.39478 220.082C3.10146 223.505 2.46404 224.483 1.34856 228.014C-0.404336 233.338 -0.457454 242.085 1.24233 245.834C1.82662 247.192 2.35781 248.714 2.35781 249.257C2.35781 251.158 5.81048 255.505 8.99757 257.678C13.5126 260.775 15.8498 261.807 20.418 262.894C23.7644 263.654 25.1455 263.763 28.8638 263.274C34.1756 262.568 37.6282 261.046 41.8246 257.406C47.5082 252.625 47.6144 252.571 53.723 251.593C64.8778 249.855 98.7672 248.877 101.264 250.235C101.954 250.561 103.335 251.81 104.345 252.951C106.894 255.776 112.206 258.493 118.368 260.177C124.211 261.753 127.292 261.916 130.213 260.829C131.329 260.394 133.347 259.905 134.781 259.742C139.934 259.091 144.927 255.45 148.858 249.42C154.435 240.945 155.338 229.264 151.248 219.756C149.973 216.714 142.537 208.673 140.252 207.804C139.349 207.423 137.862 206.826 137.012 206.391C133.613 204.87 126.707 204.272 120.014 204.924ZM129.31 226.547C132.603 228.286 133.666 234.371 131.222 237.25C127.717 241.325 121.289 241.379 119.165 237.305C118.262 235.512 118.208 231.98 119.111 229.753C120.439 226.493 125.964 224.754 129.31 226.547Z" fill="#D6A037"/>
<path d="M658.67 355H628.548C623.288 355 620.658 352.49 620.658 347.469V167.812C620.658 165.182 619.344 163.868 616.714 163.868H575.834C570.813 163.868 568.303 161.357 568.303 156.337V131.952C568.303 126.932 570.813 124.422 575.834 124.422H711.383C716.404 124.422 718.914 126.932 718.914 131.952V156.337C718.914 161.357 716.404 163.868 711.383 163.868H670.503C667.635 163.868 666.2 165.182 666.2 167.812V347.469C666.2 352.49 663.69 355 658.67 355ZM877.543 355H798.293C779.407 355 764.824 349.98 754.544 339.939C744.264 329.898 739.124 315.435 739.124 296.549V230.567C739.124 211.681 744.264 197.217 754.544 187.176C764.824 177.136 779.407 172.115 798.293 172.115H826.622C845.508 172.115 860.091 177.136 870.371 187.176C880.651 197.217 885.791 211.681 885.791 230.567V276.109C885.791 281.129 883.28 283.639 878.26 283.639H788.252C785.383 283.639 783.949 284.954 783.949 287.584V295.473C783.949 302.884 785.503 308.263 788.611 311.61C791.958 314.718 797.456 316.271 805.106 316.271H877.543C882.563 316.271 885.073 318.901 885.073 324.161V347.828C885.073 350.458 884.476 352.37 883.28 353.566C882.324 354.522 880.412 355 877.543 355ZM788.252 253.158H837.021C839.651 253.158 840.966 251.844 840.966 249.214V232.001C840.966 224.351 839.412 218.972 836.304 215.864C833.196 212.756 827.817 211.202 820.167 211.202H805.106C797.456 211.202 792.077 212.756 788.969 215.864C785.862 218.972 784.308 224.351 784.308 232.001V249.214C784.308 251.844 785.622 253.158 788.252 253.158ZM1036.45 323.085V347.828C1036.45 350.458 1035.85 352.37 1034.66 353.566C1033.7 354.522 1031.79 355 1028.92 355H975.49C956.604 355 942.021 349.98 931.742 339.939C921.462 329.898 916.322 315.435 916.322 296.549V230.567C916.322 211.681 921.462 197.217 931.742 187.176C942.021 177.136 956.604 172.115 975.49 172.115H1028.92C1033.94 172.115 1036.45 174.626 1036.45 179.646V204.389C1036.45 207.019 1035.85 208.931 1034.66 210.127C1033.7 211.083 1031.79 211.561 1028.92 211.561H982.662C975.251 211.561 969.872 213.235 966.525 216.581C963.418 219.689 961.864 225.068 961.864 232.718V294.397C961.864 302.047 963.418 307.546 966.525 310.893C969.872 314 975.251 315.554 982.662 315.554H1028.92C1033.94 315.554 1036.45 318.064 1036.45 323.085ZM1105.35 355H1074.87C1069.85 355 1067.34 352.49 1067.34 347.469V110.437C1067.34 105.416 1069.85 102.906 1074.87 102.906H1105.35C1110.37 102.906 1112.88 105.416 1112.88 110.437V191.48H1114.32C1119.57 178.57 1131.29 172.115 1149.46 172.115H1160.93C1198.47 172.115 1217.23 191.599 1217.23 230.567V347.469C1217.23 352.49 1214.6 355 1209.34 355H1179.22C1174.2 355 1171.69 352.49 1171.69 347.469V232.718C1171.69 225.068 1170.02 219.689 1166.67 216.581C1163.56 213.235 1158.18 211.561 1150.53 211.561H1137.62C1121.13 211.561 1112.88 220.646 1112.88 238.814V347.469C1112.88 352.49 1110.37 355 1105.35 355Z" fill="#001F3F"/>
<path d="M1252.89 296.19V289.018C1252.89 283.998 1255.4 281.488 1260.42 281.488H1290.9C1295.92 281.488 1298.43 283.998 1298.43 289.018V291.887C1298.43 300.971 1300.23 307.187 1303.81 310.534C1307.4 313.881 1313.97 315.554 1323.53 315.554H1340.39C1349.71 315.554 1356.17 313.761 1359.75 310.175C1363.58 306.589 1365.49 299.896 1365.49 290.094V285.791C1365.49 278.858 1362.62 273.598 1356.88 270.012C1351.39 266.187 1344.45 263.916 1336.09 263.199C1327.72 262.482 1318.63 261.167 1308.83 259.255C1299.27 257.103 1290.3 254.473 1281.94 251.365C1273.57 248.018 1266.52 241.683 1260.78 232.36C1255.28 222.797 1252.53 210.605 1252.53 195.783V183.232C1252.53 164.585 1257.79 150.121 1268.31 139.842C1278.83 129.562 1293.41 124.422 1312.06 124.422H1347.92C1366.81 124.422 1381.51 129.562 1392.03 139.842C1402.55 150.121 1407.8 164.585 1407.8 183.232V190.045C1407.8 195.066 1405.29 197.576 1400.27 197.576H1369.79C1364.77 197.576 1362.26 195.066 1362.26 190.045V187.894C1362.26 178.57 1360.47 172.235 1356.88 168.888C1353.3 165.541 1346.72 163.868 1337.16 163.868H1323.18C1313.37 163.868 1306.68 165.78 1303.09 169.605C1299.75 173.191 1298.07 180.363 1298.07 191.121V197.934C1298.07 209.17 1307.88 215.625 1327.48 217.299C1347.8 218.972 1365.85 223.036 1381.63 229.491C1389.99 233.077 1396.93 239.532 1402.43 248.855C1408.16 257.94 1411.03 269.654 1411.03 283.998V296.19C1411.03 314.837 1405.77 329.301 1395.25 339.58C1384.73 349.86 1370.15 355 1351.5 355H1312.42C1293.77 355 1279.19 349.86 1268.67 339.58C1258.15 329.301 1252.89 314.837 1252.89 296.19ZM1486.36 403.769H1455.88C1450.86 403.769 1448.35 401.379 1448.35 396.597V179.646C1448.35 174.626 1450.86 172.115 1455.88 172.115H1486.36C1491.38 172.115 1493.89 174.626 1493.89 179.646V191.48H1495.32C1497.95 185.025 1502.62 180.244 1509.31 177.136C1516 173.789 1523.06 172.115 1530.47 172.115H1545.17C1563.58 172.115 1577.44 177.136 1586.77 187.176C1596.33 197.217 1601.11 211.681 1601.11 230.567V296.549C1601.11 315.435 1596.33 329.898 1586.77 339.939C1577.44 349.98 1563.58 355 1545.17 355H1530.47C1523.06 355 1516 353.446 1509.31 350.338C1502.62 346.991 1497.95 342.09 1495.32 335.636H1493.89V396.597C1493.89 401.379 1491.38 403.769 1486.36 403.769ZM1518.63 315.554H1534.41C1542.06 315.554 1547.44 314 1550.55 310.893C1553.9 307.546 1555.57 302.047 1555.57 294.397V232.718C1555.57 225.068 1553.9 219.689 1550.55 216.581C1547.44 213.235 1542.06 211.561 1534.41 211.561H1518.63C1502.14 211.561 1493.89 220.646 1493.89 238.814V288.301C1493.89 306.47 1502.14 315.554 1518.63 315.554ZM1675.11 355H1644.63C1639.61 355 1637.1 352.49 1637.1 347.469V110.437C1637.1 105.416 1639.61 102.906 1644.63 102.906H1675.11C1680.13 102.906 1682.64 105.416 1682.64 110.437V191.48H1684.08C1689.34 178.57 1701.05 172.115 1719.22 172.115H1730.7C1768.23 172.115 1787 191.599 1787 230.567V347.469C1787 352.49 1784.37 355 1779.11 355H1748.98C1743.96 355 1741.45 352.49 1741.45 347.469V232.718C1741.45 225.068 1739.78 219.689 1736.43 216.581C1733.33 213.235 1727.95 211.561 1720.3 211.561H1707.39C1690.89 211.561 1682.64 220.646 1682.64 238.814V347.469C1682.64 352.49 1680.13 355 1675.11 355ZM1959.64 355H1880.39C1861.5 355 1846.92 349.98 1836.64 339.939C1826.36 329.898 1821.22 315.435 1821.22 296.549V230.567C1821.22 211.681 1826.36 197.217 1836.64 187.176C1846.92 177.136 1861.5 172.115 1880.39 172.115H1908.72C1927.6 172.115 1942.19 177.136 1952.47 187.176C1962.75 197.217 1967.89 211.681 1967.89 230.567V276.109C1967.89 281.129 1965.38 283.639 1960.36 283.639H1870.35C1867.48 283.639 1866.04 284.954 1866.04 287.584V295.473C1866.04 302.884 1867.6 308.263 1870.71 311.61C1874.05 314.718 1879.55 316.271 1887.2 316.271H1959.64C1964.66 316.271 1967.17 318.901 1967.17 324.161V347.828C1967.17 350.458 1966.57 352.37 1965.38 353.566C1964.42 354.522 1962.51 355 1959.64 355ZM1870.35 253.158H1919.12C1921.75 253.158 1923.06 251.844 1923.06 249.214V232.001C1923.06 224.351 1921.51 218.972 1918.4 215.864C1915.29 212.756 1909.91 211.202 1902.26 211.202H1887.2C1879.55 211.202 1874.17 212.756 1871.06 215.864C1867.96 218.972 1866.4 224.351 1866.4 232.001V249.214C1866.4 251.844 1867.72 253.158 1870.35 253.158ZM2040.01 355H2009.53C2004.51 355 2002 352.49 2002 347.469V179.646C2002 174.626 2004.51 172.115 2009.53 172.115H2040.01C2045.03 172.115 2047.54 174.626 2047.54 179.646V191.838H2048.98C2051.61 185.383 2056.27 180.483 2062.96 177.136C2069.66 173.789 2076.71 172.115 2084.12 172.115H2097.03C2101.81 172.115 2104.2 174.626 2104.2 179.646V204.389C2104.2 207.258 2103.61 209.29 2102.41 210.485C2101.45 211.442 2099.66 211.8 2097.03 211.561H2072.29C2055.79 211.561 2047.54 220.885 2047.54 239.532V347.469C2047.54 352.49 2045.03 355 2040.01 355ZM2261.85 355H2182.6C2163.72 355 2149.14 349.98 2138.86 339.939C2128.58 329.898 2123.44 315.435 2123.44 296.549V230.567C2123.44 211.681 2128.58 197.217 2138.86 187.176C2149.14 177.136 2163.72 172.115 2182.6 172.115H2210.93C2229.82 172.115 2244.4 177.136 2254.68 187.176C2264.96 197.217 2270.1 211.681 2270.1 230.567V276.109C2270.1 281.129 2267.59 283.639 2262.57 283.639H2172.56C2169.7 283.639 2168.26 284.954 2168.26 287.584V295.473C2168.26 302.884 2169.81 308.263 2172.92 311.61C2176.27 314.718 2181.77 316.271 2189.42 316.271H2261.85C2266.87 316.271 2269.39 318.901 2269.39 324.161V347.828C2269.39 350.458 2268.79 352.37 2267.59 353.566C2266.64 354.522 2264.72 355 2261.85 355ZM2172.56 253.158H2221.33C2223.96 253.158 2225.28 251.844 2225.28 249.214V232.001C2225.28 224.351 2223.72 218.972 2220.62 215.864C2217.51 212.756 2212.13 211.202 2204.48 211.202H2189.42C2181.77 211.202 2176.39 212.756 2173.28 215.864C2170.17 218.972 2168.62 224.351 2168.62 232.001V249.214C2168.62 251.844 2169.93 253.158 2172.56 253.158Z" fill="#D6A037"/>
</svg>
